<svg xmlns="http://www.w3.org/2000/svg" width="91.716" height="20.074" viewBox="0 0 91.716 20.074">
  <g id="그룹_184333" data-name="그룹 184333" transform="translate(9110 17807)">
    <g id="그룹_184248" data-name="그룹 184248" transform="translate(0 24)">
      <path id="패스_54201" data-name="패스 54201" d="M10.115,6.7H0V26.776H2.689l7.427-10.037Z" transform="translate(-9110 -17837.701)" fill="#ed7221"/>
      <path id="패스_54199" data-name="패스 54199" d="M60.417,6.7h0L52.994,16.734l0,0V26.776H69.642V6.7Z" transform="translate(-9152.876 -17837.701)" fill="#0c2f6f"/>
      <path id="패스_54202" data-name="패스 54202" d="M70.124,50.969h.823l0,4.354,4.192-4.349H76.2L73.069,54.16l3.256,4.108H75.293l-2.8-3.535L70.941,56.3l0,1.958h-.823Z" transform="translate(-9166.732 -17873.52)" fill="#fff"/>
      <path id="패스_54200" data-name="패스 54200" d="M104.019,67.1a3.417,3.417,0,0,0-.8-1.152A3.714,3.714,0,0,0,102,65.181a4.318,4.318,0,0,0-1.568-.277l-2.531,0,0,1.881.823,1.094V65.661l1.708,0a3.355,3.355,0,0,1,1.25.226,2.771,2.771,0,0,1,.952.616,2.735,2.735,0,0,1,.6.917,2.984,2.984,0,0,1,.212,1.131v.021a2.971,2.971,0,0,1-.215,1.129,2.678,2.678,0,0,1-.605.911,2.768,2.768,0,0,1-.953.6,3.435,3.435,0,0,1-1.251.217l-1.708,0v-.789h-.823l0,1.549,2.531,0a4.247,4.247,0,0,0,1.568-.28,3.757,3.757,0,0,0,1.23-.769,3.4,3.4,0,0,0,.8-1.155,3.662,3.662,0,0,0,.283-1.437v-.021a3.63,3.63,0,0,0-.28-1.433" transform="translate(-9189.204 -17884.791)" fill="#fff"/>
    </g>
    <path id="패스_56527" data-name="패스 56527" d="M8.792,0a9.519,9.519,0,0,0,5.265-1.674L12.707-4.1A6.232,6.232,0,0,1,9.3-3.049,3.973,3.973,0,0,1,5.12-6.829h9.315a7.462,7.462,0,0,0,.189-1.836c0-4.158-2.16-7.209-6.318-7.209-3.591,0-7.047,3.051-7.047,7.938C1.259-2.941,4.553,0,8.792,0ZM5.066-9.475c.3-2.187,1.7-3.321,3.294-3.321,1.944,0,2.862,1.3,2.862,3.321ZM16.659-6.318H24.03V-9.153H16.659ZM27.108,0h4V-8.64h7.56V0h3.969V-20.007H38.664v7.884H31.1v-7.884h-4ZM46.872,0h4V-7.56h2.781L57.753,0h4.455L57.537-8.181a5.72,5.72,0,0,0,3.807-5.751c0-4.59-3.321-6.075-7.506-6.075H46.872Zm4-10.719v-6.1H53.46c2.565,0,4,.729,4,2.889,0,2.133-1.431,3.213-4,3.213Z" transform="translate(-9080.492 -17786.992)" fill="#0c2f6f"/>
  </g>
</svg>
